<svg xmlns="http://www.w3.org/2000/svg" xmlns:xlink="http://www.w3.org/1999/xlink" width="924" zoomAndPan="magnify" viewBox="0 0 693 396.749985" height="529" preserveAspectRatio="xMidYMid meet" version="1.0"><defs><g/><clipPath id="f174f5eb5c"><path d="M 320.960938 327.101562 L 333.820312 327.101562 L 333.820312 339.964844 L 320.960938 339.964844 Z M 320.960938 327.101562 " clip-rule="nonzero"/></clipPath><clipPath id="948a820607"><path d="M 327.390625 327.101562 C 323.839844 327.101562 320.960938 329.980469 320.960938 333.53125 C 320.960938 337.085938 323.839844 339.964844 327.390625 339.964844 C 330.941406 339.964844 333.820312 337.085938 333.820312 333.53125 C 333.820312 329.980469 330.941406 327.101562 327.390625 327.101562 " clip-rule="nonzero"/></clipPath><clipPath id="1edf951247"><path d="M 78.261719 315.261719 L 91.125 315.261719 L 91.125 328.121094 L 78.261719 328.121094 Z M 78.261719 315.261719 " clip-rule="nonzero"/></clipPath><clipPath id="163b0b70a9"><path d="M 84.695312 315.261719 C 81.144531 315.261719 78.261719 318.140625 78.261719 321.691406 C 78.261719 325.242188 81.144531 328.121094 84.695312 328.121094 C 88.246094 328.121094 91.125 325.242188 91.125 321.691406 C 91.125 318.140625 88.246094 315.261719 84.695312 315.261719 " clip-rule="nonzero"/></clipPath><clipPath id="ca19904809"><path d="M 641.097656 308.828125 L 653.960938 308.828125 L 653.960938 321.691406 L 641.097656 321.691406 Z M 641.097656 308.828125 " clip-rule="nonzero"/></clipPath><clipPath id="6003b81aa1"><path d="M 647.53125 308.828125 C 643.976562 308.828125 641.097656 311.707031 641.097656 315.261719 C 641.097656 318.8125 643.976562 321.691406 647.53125 321.691406 C 651.082031 321.691406 653.960938 318.8125 653.960938 315.261719 C 653.960938 311.707031 651.082031 308.828125 647.53125 308.828125 " clip-rule="nonzero"/></clipPath><clipPath id="10ff9b651e"><path d="M 266 162 L 346 162 L 346 185 L 266 185 Z M 266 162 " clip-rule="nonzero"/></clipPath><clipPath id="c451f86fd7"><path d="M 323.140625 207.921875 L 264.125 166.585938 L 287.375 133.386719 L 346.394531 174.722656 Z M 323.140625 207.921875 " clip-rule="nonzero"/></clipPath><clipPath id="0486adecc4"><path d="M 323.140625 207.921875 L 264.125 166.585938 L 287.375 133.386719 L 346.394531 174.722656 Z M 323.140625 207.921875 " clip-rule="nonzero"/></clipPath><clipPath id="449c864fe9"><path d="M 254 142 L 321 142 L 321 162 L 254 162 Z M 254 142 " clip-rule="nonzero"/></clipPath><clipPath id="aafaf2462e"><path d="M 263.96875 129.210938 L 322.015625 147.292969 L 311.96875 179.539062 L 253.925781 161.457031 Z M 263.96875 129.210938 " clip-rule="nonzero"/></clipPath><clipPath id="9c23f0a882"><path d="M 263.96875 129.210938 L 322.015625 147.292969 L 311.96875 179.539062 L 253.925781 161.457031 Z M 263.96875 129.210938 " clip-rule="nonzero"/></clipPath><clipPath id="2ad3e3bee8"><path d="M 331 70 L 394 70 L 394 123 L 331 123 Z M 331 70 " clip-rule="nonzero"/></clipPath><clipPath id="99df028859"><path d="M 368.039062 54.671875 L 396.714844 120.769531 L 359.535156 136.902344 L 330.855469 70.800781 Z M 368.039062 54.671875 " clip-rule="nonzero"/></clipPath><clipPath id="837337f164"><path d="M 368.039062 54.671875 L 396.714844 120.769531 L 359.535156 136.902344 L 330.855469 70.800781 Z M 368.039062 54.671875 " clip-rule="nonzero"/></clipPath><clipPath id="d5f32c9d89"><path d="M 359 139 L 407 139 L 407 171 L 359 171 Z M 359 139 " clip-rule="nonzero"/></clipPath><clipPath id="5da8082baf"><path d="M 381.074219 129.25 L 409.667969 169.699219 L 387.601562 185.296875 L 359.011719 144.84375 Z M 381.074219 129.25 " clip-rule="nonzero"/></clipPath><clipPath id="f53533f271"><path d="M 376.582031 122.890625 L 409.074219 168.859375 L 383.332031 187.054688 L 350.839844 141.085938 Z M 376.582031 122.890625 " clip-rule="nonzero"/></clipPath><clipPath id="bc31b33e9e"><path d="M 266 78 L 323 78 L 323 153 L 266 153 Z M 266 78 " clip-rule="nonzero"/></clipPath><clipPath id="cc0ec1d1dd"><path d="M 246.421875 113.269531 L 320.496094 75.140625 L 341.105469 115.179688 L 267.03125 153.308594 Z M 246.421875 113.269531 " clip-rule="nonzero"/></clipPath><clipPath id="d8bc331baa"><path d="M 246.421875 113.269531 L 320.496094 75.140625 L 341.105469 115.179688 L 267.03125 153.308594 Z M 246.421875 113.269531 " clip-rule="nonzero"/></clipPath><clipPath id="17539a9d55"><path d="M 274 54 L 335 54 L 335 71 L 274 71 Z M 274 54 " clip-rule="nonzero"/></clipPath><clipPath id="84339f53bd"><path d="M 290.1875 38 L 335.734375 67.078125 L 319.984375 91.75 L 274.433594 62.671875 Z M 290.1875 38 " clip-rule="nonzero"/></clipPath><clipPath id="64df4bfd09"><path d="M 290.1875 38 L 335.734375 67.078125 L 319.984375 91.75 L 274.433594 62.671875 Z M 290.1875 38 " clip-rule="nonzero"/></clipPath><clipPath id="92f16f0aae"><path d="M 308 79 L 333 79 L 333 150 L 308 150 Z M 308 79 " clip-rule="nonzero"/></clipPath><clipPath id="e3e0c59ff4"><path d="M 287.640625 126.90625 L 329.324219 76.640625 L 357.054688 99.636719 L 315.375 149.902344 Z M 287.640625 126.90625 " clip-rule="nonzero"/></clipPath><clipPath id="6a784181c2"><path d="M 287.640625 126.90625 L 329.324219 76.640625 L 357.054688 99.636719 L 315.375 149.902344 Z M 287.640625 126.90625 " clip-rule="nonzero"/></clipPath><clipPath id="f778acf17b"><path d="M 288 101 L 318 101 L 318 147 L 288 147 Z M 288 101 " clip-rule="nonzero"/></clipPath><clipPath id="860f18a91e"><path d="M 290.945312 148.980469 L 287.105469 101.851562 L 314.035156 99.65625 L 317.875 146.785156 Z M 290.945312 148.980469 " clip-rule="nonzero"/></clipPath><clipPath id="1db6f0dbc6"><path d="M 290.945312 148.980469 L 287.105469 101.851562 L 314.035156 99.65625 L 317.875 146.785156 Z M 290.945312 148.980469 " clip-rule="nonzero"/></clipPath><clipPath id="c5cd4e6d21"><path d="M 391 115 L 412 115 L 412 180 L 391 180 Z M 391 115 " clip-rule="nonzero"/></clipPath><clipPath id="10fd0734ea"><path d="M 422.433594 123.382812 L 408.019531 180.125 L 377.464844 172.363281 L 391.878906 115.621094 Z M 422.433594 123.382812 " clip-rule="nonzero"/></clipPath><clipPath id="6560c3198a"><path d="M 422.433594 123.382812 L 408.019531 180.125 L 377.464844 172.363281 L 391.878906 115.621094 Z M 422.433594 123.382812 " clip-rule="nonzero"/></clipPath><clipPath id="2521bd9480"><path d="M 250.011719 148.464844 L 273.84375 148.464844 L 273.84375 172.296875 L 250.011719 172.296875 Z M 250.011719 148.464844 " clip-rule="nonzero"/></clipPath><clipPath id="9698eae9cf"><path d="M 261.925781 148.464844 C 255.347656 148.464844 250.011719 153.800781 250.011719 160.378906 C 250.011719 166.960938 255.347656 172.296875 261.925781 172.296875 C 268.507812 172.296875 273.84375 166.960938 273.84375 160.378906 C 273.84375 153.800781 268.507812 148.464844 261.925781 148.464844 " clip-rule="nonzero"/></clipPath><clipPath id="f5eb7c93b2"><path d="M 392.351562 165.378906 L 416.179688 165.378906 L 416.179688 189.207031 L 392.351562 189.207031 Z M 392.351562 165.378906 " clip-rule="nonzero"/></clipPath><clipPath id="cae8ddd3bf"><path d="M 404.265625 165.378906 C 397.6875 165.378906 392.351562 170.710938 392.351562 177.292969 C 392.351562 183.871094 397.6875 189.207031 404.265625 189.207031 C 410.847656 189.207031 416.179688 183.871094 416.179688 177.292969 C 416.179688 170.710938 410.847656 165.378906 404.265625 165.378906 " clip-rule="nonzero"/></clipPath><clipPath id="1b9779c67a"><path d="M 268.175781 56.855469 L 280.089844 56.855469 L 280.089844 68.769531 L 268.175781 68.769531 Z M 268.175781 56.855469 " clip-rule="nonzero"/></clipPath><clipPath id="404c85b9a0"><path d="M 274.132812 56.855469 C 270.839844 56.855469 268.175781 59.523438 268.175781 62.8125 C 268.175781 66.101562 270.839844 68.769531 274.132812 68.769531 C 277.421875 68.769531 280.089844 66.101562 280.089844 62.8125 C 280.089844 59.523438 277.421875 56.855469 274.132812 56.855469 " clip-rule="nonzero"/></clipPath><clipPath id="0927cc993b"><path d="M 322 66 L 367 66 L 367 136 L 322 136 Z M 322 66 " clip-rule="nonzero"/></clipPath><clipPath id="efeae5776c"><path d="M 358.441406 66.027344 L 370.105469 134.847656 L 334.585938 140.867188 L 322.921875 72.046875 Z M 358.441406 66.027344 " clip-rule="nonzero"/></clipPath><clipPath id="e7d8875cf8"><path d="M 356.589844 55.089844 L 370.132812 135.007812 L 325.734375 142.535156 L 312.1875 62.613281 Z M 356.589844 55.089844 " clip-rule="nonzero"/></clipPath><clipPath id="0d11cd9a95"><path d="M 358.164062 133.527344 L 370.078125 133.527344 L 370.078125 145.441406 L 358.164062 145.441406 Z M 358.164062 133.527344 " clip-rule="nonzero"/></clipPath><clipPath id="a43d084046"><path d="M 364.121094 133.527344 C 360.832031 133.527344 358.164062 136.195312 358.164062 139.484375 C 358.164062 142.777344 360.832031 145.441406 364.121094 145.441406 C 367.414062 145.441406 370.078125 142.777344 370.078125 139.484375 C 370.078125 136.195312 367.414062 133.527344 364.121094 133.527344 " clip-rule="nonzero"/></clipPath><clipPath id="78829a78d7"><path d="M 321.3125 62.8125 L 345.144531 62.8125 L 345.144531 86.640625 L 321.3125 86.640625 Z M 321.3125 62.8125 " clip-rule="nonzero"/></clipPath><clipPath id="b671f3bf87"><path d="M 333.226562 62.8125 C 326.648438 62.8125 321.3125 68.148438 321.3125 74.726562 C 321.3125 81.308594 326.648438 86.640625 333.226562 86.640625 C 339.808594 86.640625 345.144531 81.308594 345.144531 74.726562 C 345.144531 68.148438 339.808594 62.8125 333.226562 62.8125 " clip-rule="nonzero"/></clipPath><clipPath id="9270317271"><path d="M 281.601562 93.9375 L 293.515625 93.9375 L 293.515625 105.855469 L 281.601562 105.855469 Z M 281.601562 93.9375 " clip-rule="nonzero"/></clipPath><clipPath id="a150534027"><path d="M 287.558594 93.9375 C 284.269531 93.9375 281.601562 96.605469 281.601562 99.898438 C 281.601562 103.1875 284.269531 105.855469 287.558594 105.855469 C 290.851562 105.855469 293.515625 103.1875 293.515625 99.898438 C 293.515625 96.605469 290.851562 93.9375 287.558594 93.9375 " clip-rule="nonzero"/></clipPath><clipPath id="1720990569"><path d="M 310.128906 140.789062 L 322.046875 140.789062 L 322.046875 153.449219 L 310.128906 153.449219 Z M 310.128906 140.789062 " clip-rule="nonzero"/></clipPath><clipPath id="ee54c65ce2"><path d="M 316.085938 140.789062 C 312.796875 140.789062 310.128906 143.609375 310.128906 147.085938 C 310.128906 150.5625 312.796875 153.382812 316.085938 153.382812 C 319.378906 153.382812 322.046875 150.5625 322.046875 147.085938 C 322.046875 143.609375 319.378906 140.789062 316.085938 140.789062 " clip-rule="nonzero"/></clipPath><clipPath id="d63d2765de"><path d="M 386.394531 111.195312 L 398.308594 111.195312 L 398.308594 123.109375 L 386.394531 123.109375 Z M 386.394531 111.195312 " clip-rule="nonzero"/></clipPath><clipPath id="19d1377e60"><path d="M 392.351562 111.195312 C 389.0625 111.195312 386.394531 113.863281 386.394531 117.152344 C 386.394531 120.441406 389.0625 123.109375 392.351562 123.109375 C 395.640625 123.109375 398.308594 120.441406 398.308594 117.152344 C 398.308594 113.863281 395.640625 111.195312 392.351562 111.195312 " clip-rule="nonzero"/></clipPath><clipPath id="4ea12b9f83"><path d="M 327.269531 68.769531 L 339.1875 68.769531 L 339.1875 80.683594 L 327.269531 80.683594 Z M 327.269531 68.769531 " clip-rule="nonzero"/></clipPath><clipPath id="fbdb76489b"><path d="M 333.226562 68.769531 C 329.9375 68.769531 327.269531 71.4375 327.269531 74.726562 C 327.269531 78.015625 329.9375 80.683594 333.226562 80.683594 C 336.519531 80.683594 339.1875 78.015625 339.1875 74.726562 C 339.1875 71.4375 336.519531 68.769531 333.226562 68.769531 " clip-rule="nonzero"/></clipPath><clipPath id="65258731bf"><path d="M 255.96875 154.421875 L 267.882812 154.421875 L 267.882812 166.339844 L 255.96875 166.339844 Z M 255.96875 154.421875 " clip-rule="nonzero"/></clipPath><clipPath id="1fb9bf6f63"><path d="M 261.925781 154.421875 C 258.636719 154.421875 255.96875 157.089844 255.96875 160.378906 C 255.96875 163.671875 258.636719 166.339844 261.925781 166.339844 C 265.21875 166.339844 267.882812 163.671875 267.882812 160.378906 C 267.882812 157.089844 265.21875 154.421875 261.925781 154.421875 " clip-rule="nonzero"/></clipPath><clipPath id="71a2cffd36"><path d="M 340.105469 168.730469 L 352.019531 168.730469 L 352.019531 180.648438 L 340.105469 180.648438 Z M 340.105469 168.730469 " clip-rule="nonzero"/></clipPath><clipPath id="00d3f604ca"><path d="M 346.0625 168.730469 C 342.773438 168.730469 340.105469 171.398438 340.105469 174.6875 C 340.105469 177.980469 342.773438 180.648438 346.0625 180.648438 C 349.351562 180.648438 352.019531 177.980469 352.019531 174.6875 C 352.019531 171.398438 349.351562 168.730469 346.0625 168.730469 " clip-rule="nonzero"/></clipPath><clipPath id="02eaa5de5c"><path d="M 398.308594 171.335938 L 410.222656 171.335938 L 410.222656 183.25 L 398.308594 183.25 Z M 398.308594 171.335938 " clip-rule="nonzero"/></clipPath><clipPath id="11e7cadd8e"><path d="M 404.265625 171.335938 C 400.976562 171.335938 398.308594 174.003906 398.308594 177.292969 C 398.308594 180.582031 400.976562 183.25 404.265625 183.25 C 407.554688 183.25 410.222656 180.582031 410.222656 177.292969 C 410.222656 174.003906 407.554688 171.335938 404.265625 171.335938 " clip-rule="nonzero"/></clipPath></defs><g fill="#000000" fill-opacity="1"><g transform="translate(40.714371, 325.413885)"><g><path d="M 34.234375 1.453125 C 25.921875 1.253906 20.019531 -0.535156 16.53125 -3.921875 C 13.050781 -7.304688 11.3125 -12.578125 11.3125 -19.734375 L 11.3125 -110.265625 L 24.8125 -112.59375 L 24.8125 -21.90625 C 24.8125 -19.6875 25.003906 -17.847656 25.390625 -16.390625 C 25.773438 -14.941406 26.398438 -13.78125 27.265625 -12.90625 C 28.140625 -12.039062 29.300781 -11.390625 30.75 -10.953125 C 32.207031 -10.515625 34 -10.148438 36.125 -9.859375 Z M 34.234375 1.453125 "/></g></g></g><g fill="#000000" fill-opacity="1"><g transform="translate(80.321331, 325.413885)"><g><path d="M 7.40625 -37.578125 C 7.40625 -44.253906 8.367188 -50.082031 10.296875 -55.0625 C 12.234375 -60.039062 14.796875 -64.175781 17.984375 -67.46875 C 21.179688 -70.757812 24.859375 -73.222656 29.015625 -74.859375 C 33.171875 -76.503906 37.425781 -77.328125 41.78125 -77.328125 C 51.9375 -77.328125 59.722656 -74.160156 65.140625 -67.828125 C 70.554688 -61.492188 73.265625 -51.847656 73.265625 -38.890625 C 73.265625 -38.304688 73.265625 -37.550781 73.265625 -36.625 C 73.265625 -35.707031 73.21875 -34.863281 73.125 -34.09375 L 21.46875 -34.09375 C 22.050781 -26.257812 24.320312 -20.3125 28.28125 -16.25 C 32.25 -12.1875 38.441406 -10.15625 46.859375 -10.15625 C 51.597656 -10.15625 55.585938 -10.566406 58.828125 -11.390625 C 62.078125 -12.210938 64.519531 -13.007812 66.15625 -13.78125 L 68.046875 -2.46875 C 66.398438 -1.59375 63.519531 -0.675781 59.40625 0.28125 C 55.300781 1.25 50.640625 1.734375 45.421875 1.734375 C 38.835938 1.734375 33.148438 0.742188 28.359375 -1.234375 C 23.578125 -3.210938 19.632812 -5.941406 16.53125 -9.421875 C 13.4375 -12.910156 11.140625 -17.046875 9.640625 -21.828125 C 8.148438 -26.617188 7.40625 -31.867188 7.40625 -37.578125 Z M 59.203125 -44.984375 C 59.296875 -51.078125 57.769531 -56.082031 54.625 -60 C 51.476562 -63.914062 47.148438 -65.875 41.640625 -65.875 C 38.546875 -65.875 35.8125 -65.269531 33.4375 -64.0625 C 31.070312 -62.851562 29.066406 -61.28125 27.421875 -59.34375 C 25.773438 -57.40625 24.492188 -55.175781 23.578125 -52.65625 C 22.660156 -50.144531 22.054688 -47.585938 21.765625 -44.984375 Z M 59.203125 -44.984375 "/></g></g></g><g fill="#000000" fill-opacity="1"><g transform="translate(161.421307, 325.413885)"><g><path d="M 24.234375 -75.453125 L 52.8125 -75.453125 L 52.8125 -64.125 L 24.234375 -64.125 L 24.234375 -29.3125 C 24.234375 -25.539062 24.519531 -22.421875 25.09375 -19.953125 C 25.675781 -17.484375 26.546875 -15.546875 27.703125 -14.140625 C 28.867188 -12.742188 30.320312 -11.753906 32.0625 -11.171875 C 33.800781 -10.585938 35.832031 -10.296875 38.15625 -10.296875 C 42.21875 -10.296875 45.484375 -10.753906 47.953125 -11.671875 C 50.421875 -12.597656 52.140625 -13.253906 53.109375 -13.640625 L 55.71875 -2.46875 C 54.363281 -1.789062 51.992188 -0.945312 48.609375 0.0625 C 45.222656 1.082031 41.351562 1.59375 37 1.59375 C 31.875 1.59375 27.640625 0.941406 24.296875 -0.359375 C 20.960938 -1.671875 18.28125 -3.628906 16.25 -6.234375 C 14.21875 -8.847656 12.789062 -12.066406 11.96875 -15.890625 C 11.144531 -19.710938 10.734375 -24.132812 10.734375 -29.15625 L 10.734375 -96.484375 L 24.234375 -98.8125 Z M 24.234375 -75.453125 "/></g></g></g><g fill="#e45af6" fill-opacity="1"><g transform="translate(219.734365, 325.413885)"><g><path d="M 11.609375 -73.265625 C 14.703125 -74.046875 18.785156 -74.867188 23.859375 -75.734375 C 28.941406 -76.609375 34.820312 -77.046875 41.5 -77.046875 C 46.332031 -77.046875 50.394531 -76.390625 53.6875 -75.078125 C 56.976562 -73.773438 59.734375 -71.867188 61.953125 -69.359375 C 62.628906 -69.835938 63.691406 -70.507812 65.140625 -71.375 C 66.597656 -72.25 68.390625 -73.097656 70.515625 -73.921875 C 72.640625 -74.742188 75.007812 -75.46875 77.625 -76.09375 C 80.238281 -76.726562 83.046875 -77.046875 86.046875 -77.046875 C 91.847656 -77.046875 96.582031 -76.195312 100.25 -74.5 C 103.925781 -72.8125 106.804688 -70.421875 108.890625 -67.328125 C 110.972656 -64.234375 112.375 -60.554688 113.09375 -56.296875 C 113.820312 -52.035156 114.1875 -47.394531 114.1875 -42.375 L 114.1875 0 L 100.6875 0 L 100.6875 -39.46875 C 100.6875 -43.914062 100.46875 -47.734375 100.03125 -50.921875 C 99.601562 -54.117188 98.785156 -56.78125 97.578125 -58.90625 C 96.367188 -61.03125 94.722656 -62.597656 92.640625 -63.609375 C 90.554688 -64.628906 87.875 -65.140625 84.59375 -65.140625 C 80.039062 -65.140625 76.289062 -64.535156 73.34375 -63.328125 C 70.394531 -62.117188 68.390625 -61.03125 67.328125 -60.0625 C 68.097656 -57.550781 68.675781 -54.796875 69.0625 -51.796875 C 69.445312 -48.796875 69.640625 -45.65625 69.640625 -42.375 L 69.640625 0 L 56.15625 0 L 56.15625 -39.46875 C 56.15625 -43.914062 55.910156 -47.734375 55.421875 -50.921875 C 54.941406 -54.117188 54.097656 -56.78125 52.890625 -58.90625 C 51.679688 -61.03125 50.035156 -62.597656 47.953125 -63.609375 C 45.867188 -64.628906 43.234375 -65.140625 40.046875 -65.140625 C 38.691406 -65.140625 37.238281 -65.09375 35.6875 -65 C 34.144531 -64.90625 32.671875 -64.785156 31.265625 -64.640625 C 29.859375 -64.492188 28.578125 -64.320312 27.421875 -64.125 C 26.265625 -63.9375 25.488281 -63.796875 25.09375 -63.703125 L 25.09375 0 L 11.609375 0 Z M 11.609375 -73.265625 "/></g></g></g><g fill="#e45af6" fill-opacity="1"><g transform="translate(344.648633, 325.413885)"><g><path d="M 7.40625 -37.578125 C 7.40625 -44.253906 8.367188 -50.082031 10.296875 -55.0625 C 12.234375 -60.039062 14.796875 -64.175781 17.984375 -67.46875 C 21.179688 -70.757812 24.859375 -73.222656 29.015625 -74.859375 C 33.171875 -76.503906 37.425781 -77.328125 41.78125 -77.328125 C 51.9375 -77.328125 59.722656 -74.160156 65.140625 -67.828125 C 70.554688 -61.492188 73.265625 -51.847656 73.265625 -38.890625 C 73.265625 -38.304688 73.265625 -37.550781 73.265625 -36.625 C 73.265625 -35.707031 73.21875 -34.863281 73.125 -34.09375 L 21.46875 -34.09375 C 22.050781 -26.257812 24.320312 -20.3125 28.28125 -16.25 C 32.25 -12.1875 38.441406 -10.15625 46.859375 -10.15625 C 51.597656 -10.15625 55.585938 -10.566406 58.828125 -11.390625 C 62.078125 -12.210938 64.519531 -13.007812 66.15625 -13.78125 L 68.046875 -2.46875 C 66.398438 -1.59375 63.519531 -0.675781 59.40625 0.28125 C 55.300781 1.25 50.640625 1.734375 45.421875 1.734375 C 38.835938 1.734375 33.148438 0.742188 28.359375 -1.234375 C 23.578125 -3.210938 19.632812 -5.941406 16.53125 -9.421875 C 13.4375 -12.910156 11.140625 -17.046875 9.640625 -21.828125 C 8.148438 -26.617188 7.40625 -31.867188 7.40625 -37.578125 Z M 59.203125 -44.984375 C 59.296875 -51.078125 57.769531 -56.082031 54.625 -60 C 51.476562 -63.914062 47.148438 -65.875 41.640625 -65.875 C 38.546875 -65.875 35.8125 -65.269531 33.4375 -64.0625 C 31.070312 -62.851562 29.066406 -61.28125 27.421875 -59.34375 C 25.773438 -57.40625 24.492188 -55.175781 23.578125 -52.65625 C 22.660156 -50.144531 22.054688 -47.585938 21.765625 -44.984375 Z M 59.203125 -44.984375 "/></g></g></g><g fill="#000000" fill-opacity="1"><g transform="translate(425.737355, 325.413885)"><g><path d="M 29.15625 -9.71875 C 34.675781 -9.71875 38.765625 -10.441406 41.421875 -11.890625 C 44.085938 -13.347656 45.421875 -15.671875 45.421875 -18.859375 C 45.421875 -22.148438 44.113281 -24.757812 41.5 -26.6875 C 38.882812 -28.625 34.578125 -30.800781 28.578125 -33.21875 C 25.679688 -34.382812 22.898438 -35.570312 20.234375 -36.78125 C 17.578125 -37.988281 15.28125 -39.414062 13.34375 -41.0625 C 11.414062 -42.707031 9.867188 -44.691406 8.703125 -47.015625 C 7.546875 -49.335938 6.96875 -52.191406 6.96875 -55.578125 C 6.96875 -62.242188 9.429688 -67.535156 14.359375 -71.453125 C 19.296875 -75.367188 26.019531 -77.328125 34.53125 -77.328125 C 36.65625 -77.328125 38.78125 -77.207031 40.90625 -76.96875 C 43.039062 -76.726562 45.023438 -76.4375 46.859375 -76.09375 C 48.703125 -75.757812 50.320312 -75.398438 51.71875 -75.015625 C 53.125 -74.628906 54.210938 -74.289062 54.984375 -74 L 52.53125 -62.390625 C 51.070312 -63.160156 48.796875 -63.957031 45.703125 -64.78125 C 42.609375 -65.601562 38.882812 -66.015625 34.53125 -66.015625 C 30.757812 -66.015625 27.46875 -65.265625 24.65625 -63.765625 C 21.851562 -62.265625 20.453125 -59.921875 20.453125 -56.734375 C 20.453125 -55.085938 20.765625 -53.632812 21.390625 -52.375 C 22.023438 -51.125 22.992188 -49.988281 24.296875 -48.96875 C 25.609375 -47.957031 27.226562 -47.015625 29.15625 -46.140625 C 31.09375 -45.265625 33.414062 -44.347656 36.125 -43.390625 C 39.707031 -42.035156 42.898438 -40.703125 45.703125 -39.390625 C 48.503906 -38.085938 50.894531 -36.5625 52.875 -34.8125 C 54.863281 -33.070312 56.390625 -30.96875 57.453125 -28.5 C 58.515625 -26.039062 59.046875 -23.019531 59.046875 -19.4375 C 59.046875 -12.476562 56.457031 -7.207031 51.28125 -3.625 C 46.113281 -0.0507812 38.738281 1.734375 29.15625 1.734375 C 22.488281 1.734375 17.265625 1.175781 13.484375 0.0625 C 9.710938 -1.039062 7.148438 -1.882812 5.796875 -2.46875 L 8.265625 -14.078125 C 9.816406 -13.492188 12.285156 -12.617188 15.671875 -11.453125 C 19.054688 -10.296875 23.550781 -9.71875 29.15625 -9.71875 Z M 29.15625 -9.71875 "/></g></g></g><g fill="#000000" fill-opacity="1"><g transform="translate(490.443232, 325.413885)"><g><path d="M 7.40625 -37.578125 C 7.40625 -44.253906 8.367188 -50.082031 10.296875 -55.0625 C 12.234375 -60.039062 14.796875 -64.175781 17.984375 -67.46875 C 21.179688 -70.757812 24.859375 -73.222656 29.015625 -74.859375 C 33.171875 -76.503906 37.425781 -77.328125 41.78125 -77.328125 C 51.9375 -77.328125 59.722656 -74.160156 65.140625 -67.828125 C 70.554688 -61.492188 73.265625 -51.847656 73.265625 -38.890625 C 73.265625 -38.304688 73.265625 -37.550781 73.265625 -36.625 C 73.265625 -35.707031 73.21875 -34.863281 73.125 -34.09375 L 21.46875 -34.09375 C 22.050781 -26.257812 24.320312 -20.3125 28.28125 -16.25 C 32.25 -12.1875 38.441406 -10.15625 46.859375 -10.15625 C 51.597656 -10.15625 55.585938 -10.566406 58.828125 -11.390625 C 62.078125 -12.210938 64.519531 -13.007812 66.15625 -13.78125 L 68.046875 -2.46875 C 66.398438 -1.59375 63.519531 -0.675781 59.40625 0.28125 C 55.300781 1.25 50.640625 1.734375 45.421875 1.734375 C 38.835938 1.734375 33.148438 0.742188 28.359375 -1.234375 C 23.578125 -3.210938 19.632812 -5.941406 16.53125 -9.421875 C 13.4375 -12.910156 11.140625 -17.046875 9.640625 -21.828125 C 8.148438 -26.617188 7.40625 -31.867188 7.40625 -37.578125 Z M 59.203125 -44.984375 C 59.296875 -51.078125 57.769531 -56.082031 54.625 -60 C 51.476562 -63.914062 47.148438 -65.875 41.640625 -65.875 C 38.546875 -65.875 35.8125 -65.269531 33.4375 -64.0625 C 31.070312 -62.851562 29.066406 -61.28125 27.421875 -59.34375 C 25.773438 -57.40625 24.492188 -55.175781 23.578125 -52.65625 C 22.660156 -50.144531 22.054688 -47.585938 21.765625 -44.984375 Z M 59.203125 -44.984375 "/></g></g></g><g fill="#000000" fill-opacity="1"><g transform="translate(571.543208, 325.413885)"><g><path d="M 7.40625 -37.578125 C 7.40625 -44.253906 8.367188 -50.082031 10.296875 -55.0625 C 12.234375 -60.039062 14.796875 -64.175781 17.984375 -67.46875 C 21.179688 -70.757812 24.859375 -73.222656 29.015625 -74.859375 C 33.171875 -76.503906 37.425781 -77.328125 41.78125 -77.328125 C 51.9375 -77.328125 59.722656 -74.160156 65.140625 -67.828125 C 70.554688 -61.492188 73.265625 -51.847656 73.265625 -38.890625 C 73.265625 -38.304688 73.265625 -37.550781 73.265625 -36.625 C 73.265625 -35.707031 73.21875 -34.863281 73.125 -34.09375 L 21.46875 -34.09375 C 22.050781 -26.257812 24.320312 -20.3125 28.28125 -16.25 C 32.25 -12.1875 38.441406 -10.15625 46.859375 -10.15625 C 51.597656 -10.15625 55.585938 -10.566406 58.828125 -11.390625 C 62.078125 -12.210938 64.519531 -13.007812 66.15625 -13.78125 L 68.046875 -2.46875 C 66.398438 -1.59375 63.519531 -0.675781 59.40625 0.28125 C 55.300781 1.25 50.640625 1.734375 45.421875 1.734375 C 38.835938 1.734375 33.148438 0.742188 28.359375 -1.234375 C 23.578125 -3.210938 19.632812 -5.941406 16.53125 -9.421875 C 13.4375 -12.910156 11.140625 -17.046875 9.640625 -21.828125 C 8.148438 -26.617188 7.40625 -31.867188 7.40625 -37.578125 Z M 59.203125 -44.984375 C 59.296875 -51.078125 57.769531 -56.082031 54.625 -60 C 51.476562 -63.914062 47.148438 -65.875 41.640625 -65.875 C 38.546875 -65.875 35.8125 -65.269531 33.4375 -64.0625 C 31.070312 -62.851562 29.066406 -61.28125 27.421875 -59.34375 C 25.773438 -57.40625 24.492188 -55.175781 23.578125 -52.65625 C 22.660156 -50.144531 22.054688 -47.585938 21.765625 -44.984375 Z M 59.203125 -44.984375 "/></g></g></g><g clip-path="url(#f174f5eb5c)"><g clip-path="url(#948a820607)"><path fill="#e45af6" d="M 320.960938 327.101562 L 333.820312 327.101562 L 333.820312 339.964844 L 320.960938 339.964844 Z M 320.960938 327.101562 " fill-opacity="1" fill-rule="nonzero"/></g></g><g clip-path="url(#1edf951247)"><g clip-path="url(#163b0b70a9)"><path fill="#000000" d="M 78.261719 315.261719 L 91.125 315.261719 L 91.125 328.121094 L 78.261719 328.121094 Z M 78.261719 315.261719 " fill-opacity="1" fill-rule="nonzero"/></g></g><g clip-path="url(#ca19904809)"><g clip-path="url(#6003b81aa1)"><path fill="#000000" d="M 641.097656 308.828125 L 653.960938 308.828125 L 653.960938 321.691406 L 641.097656 321.691406 Z M 641.097656 308.828125 " fill-opacity="1" fill-rule="nonzero"/></g></g><g clip-path="url(#10ff9b651e)"><g clip-path="url(#c451f86fd7)"><g clip-path="url(#0486adecc4)"><path fill="#d9d9d9" d="M 345.429688 174.09375 C 345.507812 174.148438 345.578125 174.210938 345.640625 174.285156 C 345.703125 174.359375 345.753906 174.441406 345.792969 174.527344 C 345.832031 174.613281 345.863281 174.707031 345.878906 174.800781 C 345.894531 174.894531 345.902344 174.992188 345.894531 175.085938 C 345.886719 175.183594 345.863281 175.277344 345.832031 175.371094 C 345.800781 175.460938 345.757812 175.546875 345.703125 175.628906 C 345.648438 175.710938 345.585938 175.78125 345.515625 175.847656 C 345.441406 175.910156 345.363281 175.964844 345.277344 176.007812 C 334.101562 181.734375 323.015625 184.691406 312.339844 184.804688 C 308.074219 184.847656 303.859375 184.4375 299.695312 183.566406 C 295.53125 182.699219 291.515625 181.390625 287.644531 179.648438 C 274.320312 173.675781 267.109375 164.753906 266.804688 164.375 C 266.714844 164.261719 266.648438 164.132812 266.609375 163.992188 C 266.566406 163.847656 266.554688 163.703125 266.574219 163.554688 C 266.589844 163.410156 266.632812 163.269531 266.707031 163.136719 C 266.777344 163.007812 266.871094 162.894531 266.988281 162.800781 C 267.101562 162.707031 267.230469 162.640625 267.375 162.597656 C 267.515625 162.554688 267.660156 162.539062 267.808594 162.554688 C 267.953125 162.570312 268.089844 162.613281 268.21875 162.683594 C 268.347656 162.753906 268.460938 162.84375 268.550781 162.960938 C 268.648438 163.078125 275.8125 171.90625 288.664062 177.636719 C 300.503906 182.921875 319.765625 186.578125 344.292969 174.019531 C 344.691406 173.816406 345.070312 173.839844 345.429688 174.09375 Z M 345.429688 174.09375 " fill-opacity="1" fill-rule="nonzero"/></g></g></g><g clip-path="url(#449c864fe9)"><g clip-path="url(#aafaf2462e)"><g clip-path="url(#9c23f0a882)"><path fill="#d9d9d9" d="M 254.863281 161.714844 C 254.703125 161.664062 254.570312 161.582031 254.457031 161.460938 C 254.347656 161.339844 254.273438 161.199219 254.234375 161.039062 C 254.195312 160.878906 254.199219 160.71875 254.246094 160.5625 C 254.289062 160.402344 254.371094 160.265625 254.488281 160.152344 C 261.96875 152.796875 270.089844 147.660156 278.621094 144.894531 C 285.523438 142.65625 292.570312 141.960938 299.765625 142.804688 C 311.996094 144.210938 320.09375 149.5 320.433594 149.726562 C 320.648438 149.867188 320.785156 150.066406 320.835938 150.320312 C 320.886719 150.574219 320.839844 150.808594 320.699219 151.023438 C 320.554688 151.238281 320.359375 151.375 320.105469 151.425781 C 319.851562 151.476562 319.617188 151.433594 319.402344 151.289062 C 319.292969 151.21875 311.257812 145.996094 299.46875 144.65625 C 288.601562 143.425781 272.207031 145.347656 255.796875 161.488281 C 255.527344 161.75 255.21875 161.824219 254.863281 161.714844 Z M 254.863281 161.714844 " fill-opacity="1" fill-rule="nonzero"/></g></g></g><g clip-path="url(#2ad3e3bee8)"><g clip-path="url(#99df028859)"><g clip-path="url(#837337f164)"><path fill="#d9d9d9" d="M 331.355469 71.835938 C 331.320312 71.75 331.292969 71.660156 331.277344 71.5625 C 331.265625 71.46875 331.265625 71.375 331.273438 71.277344 C 331.285156 71.183594 331.308594 71.089844 331.34375 71 C 331.378906 70.910156 331.425781 70.828125 331.484375 70.75 C 331.539062 70.671875 331.605469 70.601562 331.679688 70.539062 C 331.757812 70.480469 331.839844 70.425781 331.925781 70.386719 C 332.015625 70.347656 332.105469 70.316406 332.203125 70.300781 C 332.296875 70.28125 332.394531 70.277344 332.488281 70.285156 C 345.003906 71.257812 355.992188 74.53125 365.148438 80.023438 C 368.804688 82.21875 372.183594 84.773438 375.277344 87.695312 C 378.367188 90.613281 381.109375 93.828125 383.496094 97.339844 C 391.726562 109.398438 393.207031 120.773438 393.265625 121.253906 C 393.285156 121.402344 393.273438 121.546875 393.234375 121.6875 C 393.195312 121.828125 393.128906 121.960938 393.035156 122.078125 C 392.945312 122.191406 392.832031 122.289062 392.703125 122.363281 C 392.574219 122.4375 392.4375 122.484375 392.289062 122.503906 C 392.140625 122.523438 391.996094 122.511719 391.851562 122.476562 C 391.707031 122.4375 391.578125 122.375 391.460938 122.285156 C 391.34375 122.195312 391.25 122.085938 391.175781 121.960938 C 391.101562 121.832031 391.058594 121.695312 391.039062 121.550781 C 391.019531 121.398438 389.527344 110.125 381.574219 98.519531 C 374.25 87.820312 359.75 74.628906 332.289062 72.5 C 331.84375 72.464844 331.53125 72.242188 331.355469 71.835938 Z M 331.355469 71.835938 " fill-opacity="1" fill-rule="nonzero"/></g></g></g><g clip-path="url(#d5f32c9d89)"><g clip-path="url(#5da8082baf)"><g clip-path="url(#f53533f271)"><path fill="#d9d9d9" d="M 351.378906 141.804688 C 351.292969 141.679688 351.242188 141.542969 351.226562 141.390625 C 351.214844 141.238281 351.238281 141.09375 351.300781 140.953125 C 351.363281 140.8125 351.457031 140.699219 351.582031 140.605469 C 351.703125 140.515625 351.84375 140.460938 351.996094 140.441406 C 361.691406 139.203125 370.597656 139.964844 378.460938 142.714844 C 384.820312 144.933594 390.410156 148.378906 395.234375 153.042969 C 403.449219 160.953125 406.40625 169.410156 406.527344 169.769531 C 406.605469 169.996094 406.589844 170.214844 406.484375 170.433594 C 406.378906 170.648438 406.210938 170.796875 405.984375 170.875 C 405.753906 170.957031 405.535156 170.945312 405.316406 170.839844 C 405.101562 170.738281 404.957031 170.570312 404.878906 170.34375 C 404.839844 170.230469 401.890625 161.855469 393.960938 154.246094 C 386.652344 147.234375 373.476562 139.445312 352.195312 142.164062 C 351.851562 142.207031 351.578125 142.085938 351.378906 141.804688 Z M 351.378906 141.804688 " fill-opacity="1" fill-rule="nonzero"/></g></g></g><g clip-path="url(#bc31b33e9e)"><g clip-path="url(#cc0ec1d1dd)"><g clip-path="url(#d8bc331baa)"><path fill="#d9d9d9" d="M 268.195312 152.664062 C 268.097656 152.714844 267.992188 152.753906 267.886719 152.777344 C 267.777344 152.800781 267.667969 152.8125 267.558594 152.808594 C 267.449219 152.804688 267.339844 152.785156 267.238281 152.753906 C 267.132812 152.722656 267.035156 152.679688 266.941406 152.625 C 266.847656 152.566406 266.765625 152.5 266.6875 152.421875 C 266.613281 152.34375 266.550781 152.257812 266.5 152.160156 C 266.449219 152.066406 266.410156 151.964844 266.382812 151.863281 C 266.359375 151.757812 266.347656 151.648438 266.351562 151.542969 C 266.742188 137.46875 269.863281 124.890625 275.628906 114.15625 C 277.929688 109.867188 280.664062 105.859375 283.832031 102.132812 C 287 98.410156 290.523438 95.050781 294.410156 92.0625 C 307.75 81.753906 320.699219 79.050781 321.246094 78.941406 C 321.410156 78.90625 321.578125 78.90625 321.742188 78.9375 C 321.90625 78.96875 322.058594 79.03125 322.199219 79.125 C 322.335938 79.214844 322.453125 79.328125 322.546875 79.46875 C 322.636719 79.605469 322.699219 79.757812 322.730469 79.917969 C 322.761719 80.082031 322.757812 80.246094 322.722656 80.410156 C 322.6875 80.574219 322.621094 80.722656 322.527344 80.863281 C 322.429688 81.003906 322.3125 81.117188 322.171875 81.210938 C 322.03125 81.304688 321.875 81.371094 321.710938 81.402344 C 321.535156 81.4375 308.710938 84.144531 295.871094 94.097656 C 284.039062 103.269531 269.757812 120.683594 268.898438 151.5625 C 268.882812 152.0625 268.648438 152.429688 268.195312 152.664062 Z M 268.195312 152.664062 " fill-opacity="1" fill-rule="nonzero"/></g></g></g><g clip-path="url(#17539a9d55)"><g clip-path="url(#84339f53bd)"><g clip-path="url(#64df4bfd09)"><path fill="#d9d9d9" d="M 275.179688 63.109375 C 275.058594 63.027344 274.960938 62.925781 274.894531 62.796875 C 274.824219 62.667969 274.792969 62.535156 274.792969 62.390625 C 274.796875 62.246094 274.835938 62.113281 274.910156 61.992188 C 274.984375 61.871094 275.085938 61.773438 275.210938 61.707031 C 283.230469 57.324219 291.308594 54.957031 299.210938 54.679688 C 305.597656 54.453125 311.773438 55.558594 317.730469 57.988281 C 327.863281 62.101562 333.601562 68.480469 333.84375 68.75 C 333.996094 68.921875 334.066406 69.117188 334.050781 69.34375 C 334.039062 69.570312 333.949219 69.753906 333.777344 69.902344 C 333.609375 70.046875 333.410156 70.113281 333.183594 70.097656 C 332.957031 70.078125 332.765625 69.984375 332.613281 69.816406 C 332.539062 69.730469 326.835938 63.417969 317.066406 59.472656 C 308.058594 55.835938 293.632812 53.523438 276.027344 63.140625 C 275.742188 63.296875 275.460938 63.285156 275.179688 63.109375 Z M 275.179688 63.109375 " fill-opacity="1" fill-rule="nonzero"/></g></g></g><g clip-path="url(#92f16f0aae)"><g clip-path="url(#e3e0c59ff4)"><g clip-path="url(#6a784181c2)"><path fill="#d9d9d9" d="M 316.011719 149.078125 C 315.898438 149.210938 315.761719 149.3125 315.59375 149.375 C 315.429688 149.4375 315.261719 149.453125 315.085938 149.425781 C 314.914062 149.398438 314.757812 149.332031 314.621094 149.222656 C 314.480469 149.113281 314.378906 148.976562 314.3125 148.816406 C 310.117188 138.421875 308.378906 128.292969 309.148438 118.710938 C 309.769531 110.960938 311.972656 103.691406 315.757812 96.894531 C 322.167969 85.328125 330.714844 79.4375 331.078125 79.1875 C 331.1875 79.113281 331.308594 79.0625 331.4375 79.035156 C 331.570312 79.007812 331.699219 79.007812 331.828125 79.035156 C 331.960938 79.058594 332.082031 79.105469 332.191406 79.179688 C 332.300781 79.253906 332.394531 79.34375 332.46875 79.453125 C 332.542969 79.5625 332.59375 79.683594 332.621094 79.8125 C 332.648438 79.945312 332.648438 80.074219 332.621094 80.203125 C 332.597656 80.335938 332.546875 80.457031 332.476562 80.566406 C 332.402344 80.679688 332.308594 80.769531 332.199219 80.84375 C 332.085938 80.925781 323.628906 86.78125 317.46875 97.9375 C 311.792969 108.214844 306.960938 125.253906 316.171875 148.058594 C 316.320312 148.429688 316.265625 148.769531 316.011719 149.078125 Z M 316.011719 149.078125 " fill-opacity="1" fill-rule="nonzero"/></g></g></g><g clip-path="url(#f778acf17b)"><g clip-path="url(#860f18a91e)"><g clip-path="url(#1db6f0dbc6)"><path fill="#d9d9d9" d="M 317.789062 146.035156 C 317.800781 146.160156 317.777344 146.285156 317.71875 146.398438 C 317.664062 146.515625 317.582031 146.609375 317.472656 146.683594 C 317.367188 146.757812 317.246094 146.804688 317.117188 146.816406 C 316.984375 146.828125 316.859375 146.8125 316.738281 146.761719 C 309.050781 143.519531 302.824219 139.167969 298.230469 133.828125 C 294.515625 129.507812 291.902344 124.632812 290.386719 119.199219 C 287.792969 109.972656 289.3125 102.585938 289.378906 102.277344 C 289.421875 102.078125 289.527344 101.925781 289.703125 101.8125 C 289.875 101.703125 290.0625 101.667969 290.265625 101.707031 C 290.46875 101.746094 290.625 101.847656 290.738281 102.015625 C 290.855469 102.183594 290.890625 102.367188 290.847656 102.5625 C 290.828125 102.660156 289.335938 109.980469 291.851562 118.871094 C 294.167969 127.0625 300.472656 138.320312 317.34375 145.425781 C 317.617188 145.542969 317.765625 145.746094 317.789062 146.035156 Z M 317.789062 146.035156 " fill-opacity="1" fill-rule="nonzero"/></g></g></g><g clip-path="url(#c5cd4e6d21)"><g clip-path="url(#10fd0734ea)"><g clip-path="url(#6560c3198a)"><path fill="#d9d9d9" d="M 391.679688 116.535156 C 391.71875 116.382812 391.792969 116.246094 391.898438 116.132812 C 392.007812 116.019531 392.136719 115.9375 392.285156 115.894531 C 392.429688 115.847656 392.582031 115.839844 392.730469 115.875 C 392.878906 115.910156 393.011719 115.980469 393.125 116.085938 C 400.316406 122.835938 405.457031 130.328125 408.40625 138.355469 C 410.792969 144.84375 411.742188 151.566406 411.261719 158.519531 C 410.46875 170.335938 405.875 178.410156 405.679688 178.75 C 405.554688 178.964844 405.375 179.105469 405.140625 179.167969 C 404.90625 179.234375 404.683594 179.203125 404.476562 179.078125 C 404.269531 178.953125 404.136719 178.773438 404.074219 178.535156 C 404.015625 178.292969 404.046875 178.066406 404.171875 177.851562 C 404.234375 177.746094 408.773438 169.730469 409.519531 158.339844 C 410.207031 147.84375 407.710938 132.226562 391.929688 117.417969 C 391.675781 117.175781 391.589844 116.882812 391.679688 116.535156 Z M 391.679688 116.535156 " fill-opacity="1" fill-rule="nonzero"/></g></g></g><g clip-path="url(#2521bd9480)"><g clip-path="url(#9698eae9cf)"><path fill="#000000" d="M 250.011719 148.464844 L 273.84375 148.464844 L 273.84375 172.296875 L 250.011719 172.296875 Z M 250.011719 148.464844 " fill-opacity="1" fill-rule="nonzero"/></g></g><g clip-path="url(#f5eb7c93b2)"><g clip-path="url(#cae8ddd3bf)"><path fill="#000000" d="M 392.351562 165.378906 L 416.179688 165.378906 L 416.179688 189.207031 L 392.351562 189.207031 Z M 392.351562 165.378906 " fill-opacity="1" fill-rule="nonzero"/></g></g><g clip-path="url(#1b9779c67a)"><g clip-path="url(#404c85b9a0)"><path fill="#000000" d="M 268.175781 56.855469 L 280.089844 56.855469 L 280.089844 68.769531 L 268.175781 68.769531 Z M 268.175781 56.855469 " fill-opacity="1" fill-rule="nonzero"/></g></g><g clip-path="url(#0927cc993b)"><g clip-path="url(#efeae5776c)"><g clip-path="url(#e7d8875cf8)"><path fill="#d9d9d9" d="M 312.449219 63.882812 C 312.429688 63.773438 312.429688 63.667969 312.4375 63.5625 C 312.449219 63.453125 312.472656 63.351562 312.507812 63.25 C 312.546875 63.148438 312.59375 63.054688 312.65625 62.964844 C 312.71875 62.875 312.789062 62.796875 312.871094 62.726562 C 312.957031 62.65625 313.046875 62.601562 313.140625 62.554688 C 313.238281 62.507812 313.339844 62.472656 313.449219 62.453125 C 313.554688 62.433594 313.660156 62.425781 313.769531 62.433594 C 313.875 62.441406 313.980469 62.460938 314.082031 62.496094 C 327.34375 66.945312 338.347656 73.5 346.789062 81.976562 C 350.160156 85.363281 353.132812 89.066406 355.703125 93.09375 C 358.273438 97.117188 360.386719 101.371094 362.039062 105.851562 C 367.75 121.242188 366.347656 134.0625 366.285156 134.601562 C 366.265625 134.765625 366.21875 134.917969 366.136719 135.0625 C 366.054688 135.207031 365.949219 135.332031 365.820312 135.433594 C 365.691406 135.539062 365.546875 135.613281 365.386719 135.65625 C 365.226562 135.703125 365.066406 135.714844 364.902344 135.695312 C 364.738281 135.679688 364.582031 135.628906 364.4375 135.546875 C 364.292969 135.46875 364.167969 135.363281 364.066406 135.234375 C 363.964844 135.105469 363.890625 134.960938 363.84375 134.804688 C 363.796875 134.644531 363.785156 134.484375 363.804688 134.320312 C 363.824219 134.148438 365.183594 121.441406 359.652344 106.617188 C 354.5625 92.953125 342.378906 74.625 313.28125 64.855469 C 312.808594 64.695312 312.53125 64.371094 312.449219 63.882812 Z M 312.449219 63.882812 " fill-opacity="1" fill-rule="nonzero"/></g></g></g><g clip-path="url(#0d11cd9a95)"><g clip-path="url(#a43d084046)"><path fill="#000000" d="M 358.164062 133.527344 L 370.078125 133.527344 L 370.078125 145.441406 L 358.164062 145.441406 Z M 358.164062 133.527344 " fill-opacity="1" fill-rule="nonzero"/></g></g><g clip-path="url(#78829a78d7)"><g clip-path="url(#b671f3bf87)"><path fill="#000000" d="M 321.3125 62.8125 L 345.144531 62.8125 L 345.144531 86.640625 L 321.3125 86.640625 Z M 321.3125 62.8125 " fill-opacity="1" fill-rule="nonzero"/></g></g><g clip-path="url(#9270317271)"><g clip-path="url(#a150534027)"><path fill="#000000" d="M 281.601562 93.9375 L 293.515625 93.9375 L 293.515625 105.855469 L 281.601562 105.855469 Z M 281.601562 93.9375 " fill-opacity="1" fill-rule="nonzero"/></g></g><g clip-path="url(#1720990569)"><g clip-path="url(#ee54c65ce2)"><path fill="#000000" d="M 310.128906 140.789062 L 322.046875 140.789062 L 322.046875 153.449219 L 310.128906 153.449219 Z M 310.128906 140.789062 " fill-opacity="1" fill-rule="nonzero"/></g></g><g clip-path="url(#d63d2765de)"><g clip-path="url(#19d1377e60)"><path fill="#000000" d="M 386.394531 111.195312 L 398.308594 111.195312 L 398.308594 123.109375 L 386.394531 123.109375 Z M 386.394531 111.195312 " fill-opacity="1" fill-rule="nonzero"/></g></g><g clip-path="url(#4ea12b9f83)"><g clip-path="url(#fbdb76489b)"><path fill="#e45af6" d="M 327.269531 68.769531 L 339.1875 68.769531 L 339.1875 80.683594 L 327.269531 80.683594 Z M 327.269531 68.769531 " fill-opacity="1" fill-rule="nonzero"/></g></g><g clip-path="url(#65258731bf)"><g clip-path="url(#1fb9bf6f63)"><path fill="#e45af6" d="M 255.96875 154.421875 L 267.882812 154.421875 L 267.882812 166.339844 L 255.96875 166.339844 Z M 255.96875 154.421875 " fill-opacity="1" fill-rule="nonzero"/></g></g><g clip-path="url(#71a2cffd36)"><g clip-path="url(#00d3f604ca)"><path fill="#000000" d="M 340.105469 168.730469 L 352.019531 168.730469 L 352.019531 180.648438 L 340.105469 180.648438 Z M 340.105469 168.730469 " fill-opacity="1" fill-rule="nonzero"/></g></g><g clip-path="url(#02eaa5de5c)"><g clip-path="url(#11e7cadd8e)"><path fill="#e45af6" d="M 398.308594 171.335938 L 410.222656 171.335938 L 410.222656 183.25 L 398.308594 183.25 Z M 398.308594 171.335938 " fill-opacity="1" fill-rule="nonzero"/></g></g></svg>